<?xml version="1.0" encoding="UTF-8"?>
<svg width="223px" height="119px" viewBox="0 0 223 119" version="1.1" xmlns="http://www.w3.org/2000/svg" xmlns:xlink="http://www.w3.org/1999/xlink">
    <!-- Generator: Sketch 43.1 (39012) - http://www.bohemiancoding.com/sketch -->
    <title>356</title>
    <desc>Created with Sketch.</desc>
    <defs></defs>
    <g id="Page-1" stroke="none" stroke-width="1" fill="none" fill-rule="evenodd">
        <g id="首页" transform="translate(-1063.000000, -1656.000000)" fill="#FFFFFF">
            <g id="EYFS-宣传语" transform="translate(155.000000, 1655.000000)">
                <path d="M962.371094,52.609375 C966.683615,54.0625073 969.894521,56.4413897 972.003906,59.7460937 C974.113292,63.0507978 975.167969,70.7968141 975.167969,82.984375 C975.167969,92.0312952 974.136729,99.0507563 972.074219,104.042969 C970.011708,109.035181 966.449244,112.832018 961.386719,115.433594 C956.324193,118.035169 949.832071,119.335937 941.910156,119.335937 C932.910111,119.335937 925.843776,117.824234 920.710938,114.800781 C915.578099,111.777329 912.203133,108.074241 910.585938,103.691406 C908.968742,99.3085718 908.160156,91.7031791 908.160156,80.875 L908.160156,71.875 L936.566406,71.875 L936.566406,90.3671875 C936.566406,95.2890871 936.859372,98.4179621 937.445312,99.7539062 C938.031253,101.08985 939.332021,101.757812 941.347656,101.757812 C943.550792,101.757812 945.003903,100.914071 945.707031,99.2265625 C946.41016,97.5390541 946.761719,93.1328481 946.761719,86.0078125 L946.761719,78.1328125 C946.761719,73.7734157 946.269536,70.5859476 945.285156,68.5703125 C944.300776,66.5546774 942.847666,65.2304719 940.925781,64.5976562 C939.003897,63.9648406 935.277371,63.601563 929.746094,63.5078125 L929.746094,46.984375 C936.496128,46.984375 940.667961,46.7265651 942.261719,46.2109375 C943.855477,45.6953099 945.003903,44.5703212 945.707031,42.8359375 C946.41016,41.1015538 946.761719,38.382831 946.761719,34.6796875 L946.761719,28.3515625 C946.761719,24.3671676 946.351567,21.7421938 945.53125,20.4765625 C944.710933,19.2109312 943.433602,18.578125 941.699219,18.578125 C939.730459,18.578125 938.382816,19.2460871 937.65625,20.5820312 C936.929684,21.9179754 936.566406,24.7656032 936.566406,29.125 L936.566406,38.4765625 L908.160156,38.4765625 L908.160156,28.7734375 C908.160156,17.8983831 910.644506,10.5508004 915.613281,6.73046875 C920.582056,2.91013715 928.480415,1 939.308594,1 C952.855536,1 962.042945,3.64841102 966.871094,8.9453125 C971.699243,14.242214 974.113281,21.6015154 974.113281,31.0234375 C974.113281,37.3984694 973.246102,42.0038921 971.511719,44.8398437 C969.777335,47.6757954 966.730491,50.2656133 962.371094,52.609375 Z M1047.37891,3.25 L1047.37891,21.4609375 L1012.15234,21.4609375 L1012.15234,40.796875 C1016.55862,35.593724 1022.23043,32.9921875 1029.16797,32.9921875 C1036.99613,32.9921875 1042.91404,35.1835718 1046.92188,39.5664062 C1050.92971,43.9492407 1052.93359,52.3749377 1052.93359,64.84375 L1052.93359,81.0859375 C1052.93359,89.1484778 1052.54688,95.0663874 1051.77344,98.8398438 C1051,102.6133 1049.34767,106.105453 1046.81641,109.316406 C1044.28514,112.52736 1040.75784,114.988273 1036.23438,116.699219 C1031.71091,118.410165 1026.19144,119.265625 1019.67578,119.265625 C1012.36324,119.265625 1005.918,117.988294 1000.33984,115.433594 C994.761691,112.878893 990.800793,109.070338 988.457031,104.007812 C986.11327,98.9452872 984.941406,91.1172405 984.941406,80.5234375 L984.941406,74.3359375 L1013.34766,74.3359375 L1013.34766,81.4375 C1013.34766,88.7969118 1013.60547,94.023422 1014.12109,97.1171875 C1014.63672,100.210953 1016.41795,101.757812 1019.46484,101.757812 C1020.8711,101.757812 1022.00781,101.312504 1022.875,100.421875 C1023.74219,99.5312455 1024.21094,98.5703177 1024.28125,97.5390625 C1024.35156,96.5078073 1024.43359,92.0312896 1024.52734,84.109375 L1024.52734,61.5390625 C1024.52734,57.2734162 1024.08204,54.3671952 1023.19141,52.8203125 C1022.30078,51.2734298 1020.82423,50.5 1018.76172,50.5 C1017.44921,50.5 1016.34766,50.8984335 1015.45703,51.6953125 C1014.5664,52.4921915 1013.99219,53.3476517 1013.73438,54.2617188 C1013.47656,55.1757858 1013.34766,57.2968584 1013.34766,60.625 L985.222656,60.625 L986.417969,3.25 L1047.37891,3.25 Z M1130.83984,33.484375 L1102.43359,33.484375 C1102.43359,28.1874735 1102.375,24.8476632 1102.25781,23.4648437 C1102.14062,22.0820243 1101.57813,20.9218797 1100.57031,19.984375 C1099.56249,19.0468703 1098.19141,18.578125 1096.45703,18.578125 C1095.0039,18.578125 1093.8086,19.023433 1092.87109,19.9140625 C1091.93359,20.804692 1091.39453,21.953118 1091.25391,23.359375 C1091.11328,24.765632 1091.04297,27.6015412 1091.04297,31.8671875 L1091.04297,50.0078125 C1092.4961,46.9609223 1094.62889,44.6757889 1097.44141,43.1523437 C1100.25392,41.6288986 1103.72264,40.8671875 1107.84766,40.8671875 C1113.05081,40.8671875 1117.64451,42.2734234 1121.62891,45.0859375 C1125.6133,47.8984516 1128.14453,51.2734178 1129.22266,55.2109375 C1130.30079,59.1484572 1130.83984,64.4687165 1130.83984,71.171875 L1130.83984,80.2421875 C1130.83984,88.2109773 1130.53516,94.1406055 1129.92578,98.03125 C1129.3164,101.921894 1127.68751,105.519515 1125.03906,108.824219 C1122.39061,112.128923 1118.75784,114.695303 1114.14062,116.523437 C1109.52341,118.351572 1104.14456,119.265625 1098.00391,119.265625 C1090.36324,119.265625 1084.10549,118.210948 1079.23047,116.101562 C1074.35544,113.992177 1070.59376,110.957051 1067.94531,106.996094 C1065.29686,103.035136 1063.75,98.8750218 1063.30469,94.515625 C1062.85937,90.1562282 1062.63672,81.6953753 1062.63672,69.1328125 L1062.63672,53.3828125 C1062.63672,39.8358698 1062.83594,30.7773666 1063.23438,26.2070312 C1063.63281,21.6366959 1065.2617,17.3125204 1068.12109,13.234375 C1070.98048,9.15622961 1074.88279,6.09766645 1079.82812,4.05859375 C1084.77346,2.01952105 1090.48044,1 1096.94922,1 C1104.91801,1 1111.45701,2.28904961 1116.56641,4.8671875 C1121.67581,7.44532539 1125.33202,11.0781016 1127.53516,15.765625 C1129.73829,20.4531484 1130.83984,26.3593394 1130.83984,33.484375 Z M1102.43359,68.9921875 C1102.43359,64.9609173 1101.98829,62.19532 1101.09766,60.6953125 C1100.20703,59.195305 1098.75392,58.4453125 1096.73828,58.4453125 C1094.76952,58.4453125 1093.32813,59.1601491 1092.41406,60.5898438 C1091.5,62.0195384 1091.04297,64.8202916 1091.04297,68.9921875 L1091.04297,89.59375 C1091.04297,94.6094001 1091.47656,97.8906173 1092.34375,99.4375 C1093.21094,100.984383 1094.65233,101.757812 1096.66797,101.757812 C1097.88672,101.757812 1099.15234,101.160162 1100.46484,99.9648438 C1101.77735,98.7695253 1102.43359,95.5469013 1102.43359,90.296875 L1102.43359,68.9921875 Z" id="356"></path>
            </g>
        </g>
    </g>
</svg>