<?xml version="1.0" encoding="UTF-8"?>
<svg width="111px" height="114px" viewBox="0 0 111 114" version="1.1" xmlns="http://www.w3.org/2000/svg" xmlns:xlink="http://www.w3.org/1999/xlink">
    <!-- Generator: Sketch 43.1 (39012) - http://www.bohemiancoding.com/sketch -->
    <title>17</title>
    <desc>Created with Sketch.</desc>
    <defs></defs>
    <g id="Page-1" stroke="none" stroke-width="1" fill="none" fill-rule="evenodd">
        <g id="首页" transform="translate(-748.000000, -1658.000000)" fill="#FFFFFF">
            <g id="EYFS-宣传语" transform="translate(155.000000, 1655.000000)">
                <path d="M641.960938,3 L641.960938,116.835938 L613.554688,116.835938 L613.554688,55.8046875 C613.554688,46.9921434 613.343752,41.6953214 612.921875,39.9140625 C612.499998,38.1328036 611.339853,36.7851608 609.441406,35.8710938 C607.542959,34.9570267 603.312533,34.5 596.75,34.5 L593.9375,34.5 L593.9375,21.2109375 C607.671944,18.2577977 618.101527,12.1875459 625.226562,3 L641.960938,3 Z M703.0625,3 L703.0625,27.8203125 L684.921875,116.835938 L656.65625,116.835938 L676.835938,23.4609375 L648.78125,23.4609375 L648.78125,3 L703.0625,3 Z" id="17"></path>
            </g>
        </g>
    </g>
</svg>