<?xml version="1.0" encoding="UTF-8"?>
<svg width="68px" height="120px" viewBox="0 0 68 120" version="1.1" xmlns="http://www.w3.org/2000/svg" xmlns:xlink="http://www.w3.org/1999/xlink">
    <!-- Generator: Sketch 43.1 (39012) - http://www.bohemiancoding.com/sketch -->
    <title>3</title>
    <desc>Created with Sketch.</desc>
    <defs></defs>
    <g id="Page-1" stroke="none" stroke-width="1" fill="none" fill-rule="evenodd">
        <g id="首页" transform="translate(-184.000000, -1655.000000)" fill="#FFFFFF">
            <g id="EYFS-宣传语" transform="translate(155.000000, 1655.000000)">
                <path d="M83.4296875,52.5234375 C87.7422091,53.9765698 90.9531145,56.3554522 93.0625,59.6601562 C95.1718855,62.9648603 96.2265625,70.7108766 96.2265625,82.8984375 C96.2265625,91.9453577 95.1953228,98.9648188 93.1328125,103.957031 C91.0703022,108.949244 87.5078378,112.746081 82.4453125,115.347656 C77.3827872,117.949232 70.8906646,119.25 62.96875,119.25 C53.968705,119.25 46.9023694,117.738296 41.7695312,114.714844 C36.6366931,111.691391 33.2617268,107.988303 31.6445312,103.605469 C30.0273357,99.2226343 29.21875,91.6172416 29.21875,80.7890625 L29.21875,71.7890625 L57.625,71.7890625 L57.625,90.28125 C57.625,95.2031496 57.9179658,98.3320246 58.5039062,99.6679687 C59.0898467,101.003913 60.3906149,101.671875 62.40625,101.671875 C64.609386,101.671875 66.0624965,100.828133 66.765625,99.140625 C67.4687535,97.4531166 67.8203125,93.0469106 67.8203125,85.921875 L67.8203125,78.046875 C67.8203125,73.6874782 67.3281299,70.5000101 66.34375,68.484375 C65.3593701,66.4687399 63.9062596,65.1445344 61.984375,64.5117188 C60.0624904,63.8789031 56.3359652,63.5156255 50.8046875,63.421875 L50.8046875,46.8984375 C57.5547213,46.8984375 61.7265545,46.6406276 63.3203125,46.125 C64.9140705,45.6093724 66.0624965,44.4843837 66.765625,42.75 C67.4687535,41.0156163 67.8203125,38.2968935 67.8203125,34.59375 L67.8203125,28.265625 C67.8203125,24.2812301 67.4101604,21.6562563 66.5898438,20.390625 C65.7695271,19.1249937 64.4921962,18.4921875 62.7578125,18.4921875 C60.7890527,18.4921875 59.4414099,19.1601496 58.7148438,20.4960938 C57.9882776,21.8320379 57.625,24.6796657 57.625,29.0390625 L57.625,38.390625 L29.21875,38.390625 L29.21875,28.6875 C29.21875,17.8124456 31.7031002,10.4648629 36.671875,6.64453125 C41.6406498,2.82419965 49.5390084,0.9140625 60.3671875,0.9140625 C73.9141302,0.9140625 83.1015384,3.56247352 87.9296875,8.859375 C92.7578366,14.1562765 95.171875,21.5155779 95.171875,30.9375 C95.171875,37.3125319 94.3046962,41.9179546 92.5703125,44.7539062 C90.8359288,47.5898579 87.7890843,50.1796758 83.4296875,52.5234375 Z" id="3"></path>
            </g>
        </g>
    </g>
</svg>